<svg width="20" height="20" viewBox="0 0 20 20" fill="none" xmlns="http://www.w3.org/2000/svg">
<rect width="20" height="20" rx="10" fill="url(#paint0_linear_1364_69156)"/>
<path fill-rule="evenodd" clip-rule="evenodd" d="M5.66206 5.10761C5.01257 5.75654 5.01257 6.8017 5.01257 8.89146V11.1081C5.01257 13.1979 5.01257 14.2431 5.66206 14.892C6.31099 15.5415 7.35614 15.5415 9.44591 15.5415H10.5542C12.644 15.5415 13.6892 15.5415 14.3381 14.892C14.9876 14.2431 14.9876 13.1979 14.9876 11.1081V8.89146C14.9876 6.8017 14.9876 5.75654 14.3381 5.10761C13.6892 4.45813 12.644 4.45813 10.5542 4.45813H9.44591C7.35614 4.45813 6.31099 4.45813 5.66206 5.10761ZM7.36778 7.78313C7.36778 7.6729 7.41157 7.56718 7.48952 7.48924C7.56746 7.41129 7.67318 7.3675 7.78341 7.3675H12.2167C12.327 7.3675 12.4327 7.41129 12.5106 7.48924C12.5886 7.56718 12.6324 7.6729 12.6324 7.78313C12.6324 7.89336 12.5886 7.99908 12.5106 8.07702C12.4327 8.15497 12.327 8.19876 12.2167 8.19876H7.78341C7.67318 8.19876 7.56746 8.15497 7.48952 8.07702C7.41157 7.99908 7.36778 7.89336 7.36778 7.78313ZM7.36778 9.9998C7.36778 9.88957 7.41157 9.78385 7.48952 9.70591C7.56746 9.62796 7.67318 9.58417 7.78341 9.58417H12.2167C12.327 9.58417 12.4327 9.62796 12.5106 9.70591C12.5886 9.78385 12.6324 9.88957 12.6324 9.9998C12.6324 10.11 12.5886 10.2157 12.5106 10.2937C12.4327 10.3716 12.327 10.4154 12.2167 10.4154H7.78341C7.67318 10.4154 7.56746 10.3716 7.48952 10.2937C7.41157 10.2157 7.36778 10.11 7.36778 9.9998ZM7.78341 11.8008C7.67318 11.8008 7.56746 11.8446 7.48952 11.9226C7.41157 12.0005 7.36778 12.1062 7.36778 12.2165C7.36778 12.3267 7.41157 12.4324 7.48952 12.5104C7.56746 12.5883 7.67318 12.6321 7.78341 12.6321H10.5542C10.6645 12.6321 10.7702 12.5883 10.8481 12.5104C10.9261 12.4324 10.9699 12.3267 10.9699 12.2165C10.9699 12.1062 10.9261 12.0005 10.8481 11.9226C10.7702 11.8446 10.6645 11.8008 10.5542 11.8008H7.78341Z" fill="white"/>
<defs>
<linearGradient id="paint0_linear_1364_69156" x1="10" y1="0" x2="10" y2="20" gradientUnits="userSpaceOnUse">
<stop stop-color="#FFBA88"/>
<stop offset="1" stop-color="#FC7900"/>
</linearGradient>
</defs>
</svg>
