<svg width="20" height="20" viewBox="0 0 20 20" fill="none" xmlns="http://www.w3.org/2000/svg">
<rect width="20" height="20" rx="10" fill="url(#paint0_linear_1364_69172)"/>
<path fill-rule="evenodd" clip-rule="evenodd" d="M5.09557 6.20629C4.44446 6.85684 4.44446 7.90462 4.44446 9.99962C4.44446 12.0946 4.44446 13.1424 5.09557 13.793C5.74612 14.4441 6.7939 14.4441 8.8889 14.4441H11.1111C13.2061 14.4441 14.2539 14.4441 14.9045 13.793C15.5556 13.1424 15.5556 12.0946 15.5556 9.99962C15.5556 7.90462 15.5556 6.85684 14.9045 6.20629C14.2539 5.55518 13.2061 5.55518 11.1111 5.55518H8.8889C6.7939 5.55518 5.74612 5.55518 5.09557 6.20629ZM13.6533 7.51073C13.724 7.59561 13.7581 7.70509 13.7481 7.81511C13.7381 7.92512 13.6849 8.02665 13.6 8.0974L12.38 9.11406C11.8872 9.52517 11.4883 9.8574 11.1356 10.0841C10.7689 10.3202 10.4117 10.4691 10 10.4691C9.58835 10.4691 9.23112 10.3196 8.8639 10.0841C8.51168 9.8574 8.11279 9.52462 7.62001 9.11462L6.40001 8.09795C6.31507 8.02723 6.2617 7.92566 6.25165 7.81558C6.24159 7.70551 6.27568 7.59595 6.3464 7.51101C6.41713 7.42607 6.5187 7.3727 6.62877 7.36264C6.73884 7.35259 6.8484 7.38667 6.93335 7.4574L8.13335 8.45684C8.65168 8.88851 9.01112 9.1874 9.31557 9.38295C9.60946 9.57184 9.8089 9.63573 10.0006 9.63573C10.1922 9.63573 10.3917 9.5724 10.6856 9.38295C10.9895 9.1874 11.3495 8.88851 11.8678 8.45684L13.0672 7.45684C13.1522 7.38621 13.2617 7.35221 13.3717 7.36232C13.4817 7.37242 13.5827 7.42581 13.6533 7.51073Z" fill="white"/>
<defs>
<linearGradient id="paint0_linear_1364_69172" x1="5" y1="-4.48773" x2="15.4162" y2="27.7641" gradientUnits="userSpaceOnUse">
<stop stop-color="#892DFF"/>
<stop offset="1" stop-color="#58B1F2"/>
</linearGradient>
</defs>
</svg>
