<svg width="20" height="20" viewBox="0 0 20 20" fill="none" xmlns="http://www.w3.org/2000/svg">
<rect width="20" height="20" rx="10" fill="url(#paint0_linear_1364_69136)"/>
<g filter="url(#filter0_d_1364_69136)">
<path fill-rule="evenodd" clip-rule="evenodd" d="M10 3.81262C6.58282 3.81262 3.81262 6.58282 3.81262 10C3.81262 13.4172 6.58282 16.1874 10 16.1874C13.4172 16.1874 16.1874 13.4172 16.1874 10C16.1874 6.58282 13.4172 3.81262 10 3.81262ZM11.0006 7.05989C11.0313 7.12005 11.0313 7.1988 11.0313 7.35632V8.5188C11.0313 8.67631 11.0313 8.75507 11.0619 8.81523C11.0889 8.86815 11.1319 8.91117 11.1848 8.93814C11.245 8.96879 11.3237 8.96879 11.4813 8.96879H12.6437C12.8012 8.96879 12.88 8.96879 12.9402 8.99945C12.9931 9.02641 13.0361 9.06944 13.0631 9.12235C13.0937 9.18252 13.0937 9.26127 13.0937 9.41879V10.5813C13.0937 10.7388 13.0937 10.8175 13.0631 10.8777C13.0361 10.9306 12.9931 10.9736 12.9402 11.0006C12.88 11.0313 12.8012 11.0313 12.6437 11.0313H11.4813C11.3237 11.0313 11.245 11.0313 11.1848 11.0619C11.1319 11.0889 11.0889 11.1319 11.0619 11.1848C11.0313 11.245 11.0313 11.3237 11.0313 11.4813V12.6437C11.0313 12.8012 11.0313 12.88 11.0006 12.9402C10.9736 12.9931 10.9306 13.0361 10.8777 13.0631C10.8175 13.0937 10.7388 13.0937 10.5813 13.0937H9.41879C9.26127 13.0937 9.18252 13.0937 9.12235 13.0631C9.06944 13.0361 9.02641 12.9931 8.99945 12.9402C8.96879 12.88 8.96879 12.8012 8.96879 12.6437V11.4813C8.96879 11.3237 8.96879 11.245 8.93814 11.1848C8.91117 11.1319 8.86815 11.0889 8.81523 11.0619C8.75507 11.0313 8.67631 11.0313 8.5188 11.0313H7.35632C7.1988 11.0313 7.12005 11.0313 7.05989 11.0006C7.00697 10.9736 6.96394 10.9306 6.93698 10.8777C6.90632 10.8175 6.90632 10.7388 6.90632 10.5813V9.41879C6.90632 9.26127 6.90632 9.18252 6.93698 9.12235C6.96394 9.06943 7.00697 9.02641 7.05989 8.99945C7.12005 8.96879 7.1988 8.96879 7.35632 8.96879H8.5188C8.67631 8.96879 8.75507 8.96879 8.81523 8.93814C8.86815 8.91117 8.91117 8.86815 8.93814 8.81523C8.96879 8.75507 8.96879 8.67631 8.96879 8.5188V7.35632C8.96879 7.1988 8.96879 7.12005 8.99945 7.05989C9.02641 7.00697 9.06944 6.96394 9.12235 6.93698C9.18252 6.90632 9.26127 6.90632 9.41879 6.90632H10.5813C10.7388 6.90632 10.8175 6.90632 10.8777 6.93698C10.9306 6.96394 10.9736 7.00697 11.0006 7.05989Z" fill="white" fill-opacity="0.92"/>
</g>
<defs>
<filter id="filter0_d_1364_69136" x="1.81262" y="2.81262" width="16.3748" height="16.3748" filterUnits="userSpaceOnUse" color-interpolation-filters="sRGB">
<feFlood flood-opacity="0" result="BackgroundImageFix"/>
<feColorMatrix in="SourceAlpha" type="matrix" values="0 0 0 0 0 0 0 0 0 0 0 0 0 0 0 0 0 0 127 0" result="hardAlpha"/>
<feOffset dy="1"/>
<feGaussianBlur stdDeviation="1"/>
<feColorMatrix type="matrix" values="0 0 0 0 0.0627451 0 0 0 0 0.0941176 0 0 0 0 0.156863 0 0 0 0.05 0"/>
<feBlend mode="normal" in2="BackgroundImageFix" result="effect1_dropShadow_1364_69136"/>
<feBlend mode="normal" in="SourceGraphic" in2="effect1_dropShadow_1364_69136" result="shape"/>
</filter>
<linearGradient id="paint0_linear_1364_69136" x1="10" y1="0" x2="10" y2="20" gradientUnits="userSpaceOnUse">
<stop stop-color="#88CDFF"/>
<stop offset="1" stop-color="#0074FC"/>
</linearGradient>
</defs>
</svg>
