<svg width="21" height="20" viewBox="0 0 21 20" fill="none" xmlns="http://www.w3.org/2000/svg">
<rect x="0.5" width="20" height="20" rx="10" fill="url(#paint0_linear_94_129397)"/>
<g filter="url(#filter0_d_94_129397)">
<path d="M10.4999 9.25C10.0857 9.25 9.74993 9.58578 9.74993 9.99999C9.74993 10.4142 10.0857 10.75 10.4999 10.75C10.9141 10.75 11.2499 10.4142 11.2499 9.99999C11.2499 9.58578 10.9141 9.25 10.4999 9.25Z" fill="white" fill-opacity="0.92"/>
<path fill-rule="evenodd" clip-rule="evenodd" d="M12.9999 5.50006C11.9184 5.50006 10.9807 5.77129 10.1654 6.02216L10.0131 6.06912C9.24285 6.30691 8.61724 6.50005 7.99996 6.50005C7.55704 6.50005 7.16137 6.45296 6.82823 6.38895L6.81251 6.38593C6.56846 6.33904 6.3635 6.29965 6.20422 6.2786C6.06448 6.26012 5.85741 6.23817 5.66805 6.3048C5.56881 6.33973 5.46146 6.38954 5.35997 6.47339C5.25848 6.55724 5.1893 6.65326 5.13628 6.74413C5.03888 6.91105 5.01861 7.10024 5.00962 7.23553C4.99999 7.38047 5 7.56482 5 7.77756L5 13.1753C4.99997 13.2739 4.99993 13.3909 5.05947 13.5557C5.08904 13.6376 5.13774 13.7167 5.16585 13.7598C5.19397 13.8029 5.24663 13.8794 5.3096 13.9395C5.35032 13.9783 5.39674 14.0194 5.45234 14.0559C5.50686 14.0917 5.55652 14.1134 5.5782 14.1229L5.58214 14.1247C5.99201 14.3055 6.72721 14.4999 7.99996 14.4999C9.08142 14.4999 10.0191 14.2287 10.8345 13.9778L10.9867 13.9309C11.757 13.6931 12.3826 13.4999 12.9999 13.4999C13.4428 13.4999 13.8385 13.547 14.1716 13.611L14.1873 13.6141C14.4314 13.6609 14.6363 13.7003 14.7956 13.7214C14.9354 13.7399 15.1424 13.7618 15.3318 13.6952C15.431 13.6603 15.5384 13.6104 15.6399 13.5266C15.7414 13.4427 15.8105 13.3467 15.8636 13.2559C15.961 13.0889 15.9812 12.8997 15.9902 12.7644C15.9998 12.6195 15.9998 12.4352 15.9998 12.2224L15.9998 6.8247C15.9999 6.72612 15.9999 6.60908 15.9404 6.44424C15.9108 6.36237 15.8621 6.28333 15.834 6.2402C15.8059 6.19707 15.7532 6.12062 15.6902 6.06052C15.6495 6.02166 15.6031 5.98056 15.5475 5.94407C15.493 5.90829 15.4433 5.88653 15.4216 5.87704L15.4177 5.87531C15.0078 5.69451 14.2726 5.50006 12.9999 5.50006ZM13.9999 8.50001C13.9999 8.22388 13.776 8.00002 13.4999 8.00002C13.2237 8.00002 12.9999 8.22388 12.9999 8.50001V10.5C12.9999 10.7761 13.2237 11 13.4999 11C13.776 11 13.9999 10.7761 13.9999 10.5V8.50001ZM8.74994 9.99999C8.74994 9.03351 9.53343 8.25002 10.4999 8.25002C11.4664 8.25002 12.2499 9.03351 12.2499 9.99999C12.2499 10.9665 11.4664 11.75 10.4999 11.75C9.53343 11.75 8.74994 10.9665 8.74994 9.99999ZM7.49996 9.00001C7.7761 9.00001 7.99995 9.22386 7.99995 9.5V11.5C7.99995 11.7761 7.7761 12 7.49996 12C7.22382 12 6.99997 11.7761 6.99997 11.5V9.5C6.99997 9.22386 7.22382 9.00001 7.49996 9.00001Z" fill="white" fill-opacity="0.92"/>
</g>
<defs>
<filter id="filter0_d_94_129397" x="3" y="4.50006" width="14.9998" height="12.9999" filterUnits="userSpaceOnUse" color-interpolation-filters="sRGB">
<feFlood flood-opacity="0" result="BackgroundImageFix"/>
<feColorMatrix in="SourceAlpha" type="matrix" values="0 0 0 0 0 0 0 0 0 0 0 0 0 0 0 0 0 0 127 0" result="hardAlpha"/>
<feOffset dy="1"/>
<feGaussianBlur stdDeviation="1"/>
<feColorMatrix type="matrix" values="0 0 0 0 0.0627451 0 0 0 0 0.0941176 0 0 0 0 0.156863 0 0 0 0.05 0"/>
<feBlend mode="normal" in2="BackgroundImageFix" result="effect1_dropShadow_94_129397"/>
<feBlend mode="normal" in="SourceGraphic" in2="effect1_dropShadow_94_129397" result="shape"/>
</filter>
<linearGradient id="paint0_linear_94_129397" x1="10.5" y1="0" x2="10.5" y2="20" gradientUnits="userSpaceOnUse">
<stop stop-color="#26272B"/>
<stop offset="1" stop-color="#16171B"/>
</linearGradient>
</defs>
</svg>
