<svg width="20" height="20" viewBox="0 0 20 20" fill="none" xmlns="http://www.w3.org/2000/svg">
<rect width="20" height="20" rx="10" fill="url(#paint0_linear_1364_69142)"/>
<g filter="url(#filter0_d_1364_69142)">
<path d="M12.4388 12.1427L14.1812 10.4004C14.3207 10.2608 14.3207 10.0347 14.1812 9.89523L13.6761 9.3901C13.5365 9.2506 13.3104 9.2506 13.1709 9.3901L11.4285 11.1325L9.55447 9.25841C10.6096 9.12493 11.4285 8.2341 11.4285 7.14282C11.4285 5.95936 10.4692 5 9.28572 5H6.07149C5.87417 5 5.71436 5.15982 5.71436 5.35714V11.0713C5.71436 11.2686 5.87417 11.4285 6.07149 11.4285H6.78577C6.98308 11.4285 7.1429 11.2686 7.1429 11.0713V9.28564H7.56142L10.4185 12.1427L8.67614 13.8851C8.53663 14.0246 8.53663 14.2507 8.67614 14.3902L9.18126 14.8954C9.32077 15.0349 9.54688 15.0349 9.68639 14.8954L11.4285 13.1528L13.1709 14.8951C13.3104 15.0347 13.5365 15.0347 13.6761 14.8951L14.1812 14.39C14.3207 14.2505 14.3207 14.0244 14.1812 13.8849L12.4388 12.1427ZM7.1429 6.42855H9.28572C9.67947 6.42855 10 6.74908 10 7.14282C10 7.53656 9.67947 7.8571 9.28572 7.8571H7.1429V6.42855Z" fill="white" fill-opacity="0.92"/>
</g>
<defs>
<filter id="filter0_d_1364_69142" x="4.04769" y="4.16667" width="11.9047" height="13.3333" filterUnits="userSpaceOnUse" color-interpolation-filters="sRGB">
<feFlood flood-opacity="0" result="BackgroundImageFix"/>
<feColorMatrix in="SourceAlpha" type="matrix" values="0 0 0 0 0 0 0 0 0 0 0 0 0 0 0 0 0 0 127 0" result="hardAlpha"/>
<feOffset dy="0.833333"/>
<feGaussianBlur stdDeviation="0.833333"/>
<feColorMatrix type="matrix" values="0 0 0 0 0.0627451 0 0 0 0 0.0941176 0 0 0 0 0.156863 0 0 0 0.05 0"/>
<feBlend mode="normal" in2="BackgroundImageFix" result="effect1_dropShadow_1364_69142"/>
<feBlend mode="normal" in="SourceGraphic" in2="effect1_dropShadow_1364_69142" result="shape"/>
</filter>
<linearGradient id="paint0_linear_1364_69142" x1="10" y1="0" x2="10" y2="20" gradientUnits="userSpaceOnUse">
<stop stop-color="#69AEFF"/>
<stop offset="1" stop-color="#1D10AD"/>
</linearGradient>
</defs>
</svg>
