<svg width="20" height="20" viewBox="0 0 20 20" fill="none" xmlns="http://www.w3.org/2000/svg">
<rect width="20" height="20" rx="10" fill="url(#paint0_linear_1364_69167)"/>
<g filter="url(#filter0_d_1364_69167)">
<path fill-rule="evenodd" clip-rule="evenodd" d="M10.8145 14.236L10.5435 14.694C10.302 15.102 9.6985 15.102 9.4565 14.694L9.1855 14.236C8.9755 13.881 8.8705 13.703 8.7015 13.605C8.5325 13.5065 8.32 13.503 7.895 13.4955C7.267 13.485 6.8735 13.4465 6.5435 13.3095C6.24018 13.1839 5.96458 12.9997 5.73243 12.7676C5.50029 12.5354 5.31614 12.2598 5.1905 11.9565C5 11.4975 5 10.915 5 9.75V9.25C5 7.6135 5 6.795 5.3685 6.194C5.57452 5.8576 5.85722 5.57472 6.1935 5.3685C6.795 5 7.614 5 9.25 5H10.75C12.3865 5 13.205 5 13.8065 5.3685C14.1427 5.57458 14.4254 5.85728 14.6315 6.1935C15 6.795 15 7.614 15 9.25V9.75C15 10.915 15 11.4975 14.81 11.9565C14.6843 12.2599 14.5001 12.5355 14.2678 12.7676C14.0356 12.9998 13.7599 13.1839 13.4565 13.3095C13.1265 13.4465 12.733 13.4845 12.105 13.4955C11.68 13.503 11.4675 13.5065 11.2985 13.605C11.1295 13.703 11.0245 13.8805 10.8145 14.236ZM8 9.875C7.90054 9.875 7.80516 9.91451 7.73483 9.98484C7.66451 10.0552 7.625 10.1505 7.625 10.25C7.625 10.3495 7.66451 10.4448 7.73483 10.5152C7.80516 10.5855 7.90054 10.625 8 10.625H10.75C10.8495 10.625 10.9448 10.5855 11.0152 10.5152C11.0855 10.4448 11.125 10.3495 11.125 10.25C11.125 10.1505 11.0855 10.0552 11.0152 9.98484C10.9448 9.91451 10.8495 9.875 10.75 9.875H8ZM7.625 8.5C7.625 8.40054 7.66451 8.30516 7.73483 8.23484C7.80516 8.16451 7.90054 8.125 8 8.125H12C12.0995 8.125 12.1948 8.16451 12.2652 8.23484C12.3355 8.30516 12.375 8.40054 12.375 8.5C12.375 8.59946 12.3355 8.69484 12.2652 8.76516C12.1948 8.83549 12.0995 8.875 12 8.875H8C7.90054 8.875 7.80516 8.83549 7.73483 8.76516C7.66451 8.69484 7.625 8.59946 7.625 8.5Z" fill="white"/>
</g>
<defs>
<filter id="filter0_d_1364_69167" x="2" y="3" width="16" height="16" filterUnits="userSpaceOnUse" color-interpolation-filters="sRGB">
<feFlood flood-opacity="0" result="BackgroundImageFix"/>
<feColorMatrix in="SourceAlpha" type="matrix" values="0 0 0 0 0 0 0 0 0 0 0 0 0 0 0 0 0 0 127 0" result="hardAlpha"/>
<feOffset dy="1"/>
<feGaussianBlur stdDeviation="1"/>
<feColorMatrix type="matrix" values="0 0 0 0 0.0627451 0 0 0 0 0.0941176 0 0 0 0 0.156863 0 0 0 0.05 0"/>
<feBlend mode="normal" in2="BackgroundImageFix" result="effect1_dropShadow_1364_69167"/>
<feBlend mode="normal" in="SourceGraphic" in2="effect1_dropShadow_1364_69167" result="shape"/>
</filter>
<linearGradient id="paint0_linear_1364_69167" x1="10" y1="0" x2="10" y2="20" gradientUnits="userSpaceOnUse">
<stop stop-color="#8AFF88"/>
<stop offset="1" stop-color="#00A638"/>
</linearGradient>
</defs>
</svg>
